<svg xmlns="http://www.w3.org/2000/svg" version="1.1" xmlns:xlink="http://www.w3.org/1999/xlink" xmlns:svgjs="http://svgjs.dev/svgjs" width="144" height="144"><svg width="144" height="144" viewBox="0 0 144 144" fill="none" xmlns="http://www.w3.org/2000/svg">
<rect width="144" height="144" fill="#FFFFF0"></rect>
<line y1="28.2" x2="144" y2="28.2" stroke="#1EA1FF" stroke-opacity="0.5" stroke-width="2"></line>
<line y1="56.4" x2="144" y2="56.4" stroke="#1EA1FF" stroke-opacity="0.5" stroke-width="2"></line>
<line y1="84.6" x2="144" y2="84.6" stroke="#1EA1FF" stroke-opacity="0.5" stroke-width="2"></line>
<line y1="112.8" x2="144" y2="112.8" stroke="#1EA1FF" stroke-opacity="0.5" stroke-width="2"></line>
<line x1="27.8" y1="144" x2="27.8" y2="4.37114e-08" stroke="#1EA1FF" stroke-opacity="0.5" stroke-width="2"></line>
<line x1="56.6" y1="144" x2="56.6" y2="4.37114e-08" stroke="#1EA1FF" stroke-opacity="0.5" stroke-width="2"></line>
<line x1="85.4" y1="144" x2="85.4" y2="-0.000946001" stroke="#1EA1FF" stroke-opacity="0.5" stroke-width="2"></line>
<line x1="114.2" y1="144" x2="114.2" y2="4.37114e-08" stroke="#1EA1FF" stroke-opacity="0.5" stroke-width="2"></line>
<path d="M33.504 108.96C30.112 108.96 27.04 108.48 24.288 107.52C21.6 106.496 19.264 105.248 17.28 103.776C15.296 102.24 13.664 100.704 12.384 99.168C11.104 97.568 10.112 96.16 9.408 94.944L16.224 87.84C17.44 89.504 18.624 91.04 19.776 92.448C20.992 93.856 22.272 95.072 23.616 96.096C24.96 97.12 26.432 97.888 28.032 98.4C29.632 98.912 31.456 99.168 33.504 99.168C36.768 99.168 39.552 98.464 41.856 97.056C44.224 95.584 46.048 93.632 47.328 91.2C48.672 88.704 49.344 85.952 49.344 82.944V50.784H34.176V40.8H71.52V50.784H59.712V83.904C59.712 87.168 59.104 90.304 57.888 93.312C56.736 96.32 55.008 99.008 52.704 101.376C50.464 103.744 47.712 105.6 44.448 106.944C41.248 108.288 37.6 108.96 33.504 108.96ZM81.3045 108V40.8H91.6725V108H81.3045ZM85.1445 79.968V69.984H127.961V79.968H85.1445ZM86.0085 50.784V40.8H132.281V50.784H86.0085Z" fill="black"></path>
</svg><style>@media (prefers-color-scheme: light) { :root { filter: none; } }
@media (prefers-color-scheme: dark) { :root { filter: none; } }
</style></svg>